<svg width="296" height="230" viewBox="0 0 296 230" fill="none" xmlns="http://www.w3.org/2000/svg">
<g clip-path="url(#clip0_7_443)">
<path d="M168.434 112.303C175.059 112.303 180.43 106.933 180.43 100.308C180.43 93.6828 175.059 88.3122 168.434 88.3122C161.809 88.3122 156.438 93.6828 156.438 100.308C156.438 106.933 161.809 112.303 168.434 112.303Z" fill="#E6E6E6"/>
<path d="M197.833 115.723L185.298 103.187C186.259 101.693 186.91 100.02 187.212 98.2695C187.515 96.5187 187.464 94.7249 187.06 92.9944C186.657 91.2639 185.911 89.6319 184.866 88.1952C183.82 86.7584 182.497 85.5461 180.975 84.63C178.108 82.9174 174.702 82.3439 171.433 83.0231C168.163 83.7023 165.268 85.5846 163.32 88.2973C161.528 90.8101 160.667 93.8687 160.886 96.9473C161.104 100.026 162.389 102.932 164.518 105.167C166.647 107.401 169.488 108.824 172.553 109.19C175.617 109.557 178.714 108.844 181.31 107.175L193.846 119.711C194.375 120.239 195.092 120.536 195.839 120.535C196.587 120.535 197.304 120.238 197.832 119.71C198.361 119.181 198.658 118.464 198.658 117.716C198.658 116.969 198.362 116.252 197.833 115.723ZM180.842 102.719C179.289 104.273 177.245 105.239 175.059 105.455C172.873 105.67 170.68 105.121 168.853 103.9C167.027 102.68 165.68 100.864 165.042 98.7618C164.404 96.6598 164.515 94.4016 165.356 92.3722C166.197 90.3427 167.715 88.6675 169.652 87.632C171.589 86.5965 173.826 86.2647 175.98 86.6933C178.135 87.1218 180.074 88.2841 181.468 89.9822C182.861 91.6802 183.623 93.8089 183.623 96.0056C183.624 97.2527 183.38 98.4878 182.902 99.6399C182.425 100.792 181.725 101.839 180.842 102.719Z" fill="#3F3D56"/>
<path d="M288.703 134.214C320.761 169.667 227.829 220.76 152.738 220.76C77.6461 220.76 25.6944 181.172 16.7723 134.214C-4.86077 20.3557 201.091 -52.0119 152.738 47.6671C82.2563 192.961 263.456 106.294 288.703 134.214Z" fill="#E6E6E6"/>
<path d="M274.319 142.604C306.377 178.058 213.445 229.151 138.354 229.151C63.262 229.151 11.3103 189.563 2.38822 142.604C-19.2449 28.7464 186.707 -43.6212 138.354 56.0578C67.8723 201.351 249.072 114.684 274.319 142.604Z" fill="#3F3D56"/>
<path d="M45.6184 59.4822C23.1231 58.4918 5.68126 53.6393 5.9104 48.4352C6.04778 45.3151 12.4142 42.8061 23.3771 41.5519C23.4163 41.5472 23.4561 41.5502 23.4942 41.5609C23.5322 41.5716 23.5678 41.5897 23.5988 41.6142C23.6298 41.6387 23.6557 41.6691 23.6749 41.7036C23.6942 41.7381 23.7064 41.7761 23.7109 41.8154C23.7154 41.8546 23.712 41.8944 23.7011 41.9324C23.6902 41.9703 23.6718 42.0058 23.6471 42.0366C23.6224 42.0675 23.5919 42.0932 23.5572 42.1122C23.5226 42.1312 23.4845 42.1431 23.4452 42.1474C13.1181 43.329 6.62862 45.7484 6.50915 48.4615C6.30194 53.1677 24.2238 57.9403 45.6448 58.8835C67.0657 59.8267 85.3378 56.6477 85.545 51.9415C85.6649 49.217 79.3728 46.2282 69.1238 44.1416C69.0852 44.1339 69.0484 44.1186 69.0157 44.0966C68.983 44.0746 68.9549 44.0464 68.9331 44.0135C68.9113 43.9807 68.8962 43.9438 68.8886 43.9051C68.8811 43.8664 68.8812 43.8266 68.8891 43.788C68.897 43.7493 68.9124 43.7126 68.9345 43.68C68.9565 43.6473 68.9849 43.6193 69.0178 43.5976C69.0507 43.5759 69.0876 43.5609 69.1263 43.5535C69.165 43.546 69.2048 43.5463 69.2434 43.5543C80.1217 45.769 86.2816 48.8356 86.1437 51.9679C85.9146 57.1721 68.1137 60.4727 45.6184 59.4822Z" fill="#6366F1"/>
<path d="M25.6393 60.3538C27.5212 63.9287 30.3088 66.9468 33.7234 69.106C37.138 71.2652 41.0597 72.4898 45.0962 72.6573C49.1328 72.8249 53.1425 71.9295 56.7243 70.0607C60.306 68.1918 63.3342 65.4152 65.5059 62.0085C52.1967 62.1879 38.8878 61.6355 25.6393 60.3538Z" fill="#6366F1"/>
<path d="M67.9943 55.705C69.1268 52.3079 69.4532 48.6939 68.9475 45.1488C68.4418 41.6038 67.1179 38.2251 65.0806 35.2802C63.0434 32.3353 60.3486 29.905 57.2097 28.1817C54.0707 26.4583 50.5738 25.4892 46.9955 25.351C43.4173 25.2128 39.856 25.9094 36.5935 27.3855C33.331 28.8617 30.4569 31.077 28.1986 33.856C25.9403 36.635 24.3598 39.9015 23.5822 43.397C22.8046 46.8924 22.8513 50.5209 23.7185 53.9952C38.341 56.4775 53.2238 57.0522 67.9943 55.705Z" fill="#6366F1"/>
<path d="M51.3839 40.2362C52.8735 40.2362 54.081 39.0287 54.081 37.5392C54.081 36.0497 52.8735 34.8422 51.3839 34.8422C49.8944 34.8422 48.6869 36.0497 48.6869 37.5392C48.6869 39.0287 49.8944 40.2362 51.3839 40.2362Z" fill="white"/>
<path d="M37.5033 50.7217C39.9859 50.7217 41.9983 48.7092 41.9983 46.2267C41.9983 43.7442 39.9859 41.7317 37.5033 41.7317C35.0208 41.7317 33.0083 43.7442 33.0083 46.2267C33.0083 48.7092 35.0208 50.7217 37.5033 50.7217Z" fill="white"/>
<path d="M105.346 46.3186C107.001 46.3186 108.342 44.977 108.342 43.322C108.342 41.667 107.001 40.3254 105.346 40.3254C103.691 40.3254 102.349 41.667 102.349 43.322C102.349 44.977 103.691 46.3186 105.346 46.3186Z" fill="#6366F1"/>
<path d="M37.6206 138.017C38.6136 138.017 39.4186 137.212 39.4186 136.219C39.4186 135.226 38.6136 134.421 37.6206 134.421C36.6275 134.421 35.8225 135.226 35.8225 136.219C35.8225 137.212 36.6275 138.017 37.6206 138.017Z" fill="#E6E6E6"/>
<path d="M163.481 199.749C164.474 199.749 165.279 198.944 165.279 197.951C165.279 196.958 164.474 196.153 163.481 196.153C162.488 196.153 161.683 196.958 161.683 197.951C161.683 198.944 162.488 199.749 163.481 199.749Z" fill="#E6E6E6"/>
<path d="M46.3109 103.256C46.8075 103.256 47.21 102.853 47.21 102.357C47.21 101.86 46.8075 101.458 46.3109 101.458C45.8144 101.458 45.4119 101.86 45.4119 102.357C45.4119 102.853 45.8144 103.256 46.3109 103.256Z" fill="#E6E6E6"/>
<path d="M120.629 170.381C121.125 170.381 121.528 169.979 121.528 169.482C121.528 168.986 121.125 168.583 120.629 168.583C120.132 168.583 119.73 168.986 119.73 169.482C119.73 169.979 120.132 170.381 120.629 170.381Z" fill="#E6E6E6"/>
<path d="M255.779 161.691C256.275 161.691 256.678 161.288 256.678 160.792C256.678 160.295 256.275 159.893 255.779 159.893C255.282 159.893 254.88 160.295 254.88 160.792C254.88 161.288 255.282 161.691 255.779 161.691Z" fill="#E6E6E6"/>
<path d="M213.526 188.361C214.022 188.361 214.425 187.959 214.425 187.462C214.425 186.966 214.022 186.563 213.526 186.563C213.029 186.563 212.627 186.966 212.627 187.462C212.627 187.959 213.029 188.361 213.526 188.361Z" fill="#E6E6E6"/>
<path d="M169.475 155.997C169.971 155.997 170.374 155.595 170.374 155.098C170.374 154.602 169.971 154.199 169.475 154.199C168.978 154.199 168.576 154.602 168.576 155.098C168.576 155.595 168.978 155.997 169.475 155.997Z" fill="#E6E6E6"/>
<path d="M112.538 67.2955C113.034 67.2955 113.437 66.893 113.437 66.3965C113.437 65.8999 113.034 65.4974 112.538 65.4974C112.041 65.4974 111.639 65.8999 111.639 66.3965C111.639 66.893 112.041 67.2955 112.538 67.2955Z" fill="#E6E6E6"/>
<path d="M119.73 22.9446C120.226 22.9446 120.629 22.5421 120.629 22.0456C120.629 21.5491 120.226 21.1465 119.73 21.1465C119.233 21.1465 118.831 21.5491 118.831 22.0456C118.831 22.5421 119.233 22.9446 119.73 22.9446Z" fill="#E6E6E6"/>
<path d="M115.534 209.638C116.031 209.638 116.433 209.235 116.433 208.739C116.433 208.242 116.031 207.84 115.534 207.84C115.038 207.84 114.635 208.242 114.635 208.739C114.635 209.235 115.038 209.638 115.534 209.638Z" fill="#E6E6E6"/>
<path d="M71.1834 190.759C71.6799 190.759 72.0824 190.356 72.0824 189.86C72.0824 189.363 71.6799 188.961 71.1834 188.961C70.6869 188.961 70.2844 189.363 70.2844 189.86C70.2844 190.356 70.6869 190.759 71.1834 190.759Z" fill="#E6E6E6"/>
<path d="M211.728 158.395C212.224 158.395 212.627 157.992 212.627 157.496C212.627 156.999 212.224 156.597 211.728 156.597C211.231 156.597 210.829 156.999 210.829 157.496C210.829 157.992 211.231 158.395 211.728 158.395Z" fill="#E6E6E6"/>
<path d="M45.2528 70.562C46.7423 70.562 47.9498 69.3545 47.9498 67.865C47.9498 66.3755 46.7423 65.168 45.2528 65.168C43.7633 65.168 42.5558 66.3755 42.5558 67.865C42.5558 69.3545 43.7633 70.562 45.2528 70.562Z" fill="white"/>
<path d="M106.245 109.249C106.245 117.304 93.7906 136.074 90.151 141.387C90.0412 141.548 89.8939 141.68 89.7218 141.77C89.5497 141.861 89.3581 141.909 89.1635 141.909C88.9689 141.909 88.7773 141.861 88.6052 141.77C88.4331 141.68 88.2858 141.548 88.176 141.387C84.5365 136.074 72.0824 117.304 72.0824 109.249C72.0824 107.006 72.5242 104.785 73.3826 102.712C74.2411 100.64 75.4992 98.757 77.0854 97.1709C78.6715 95.5848 80.5545 94.3266 82.6269 93.4682C84.6992 92.6098 86.9204 92.168 89.1635 92.168C91.4066 92.168 93.6278 92.6098 95.7002 93.4682C97.7725 94.3266 99.6555 95.5848 101.242 97.1709C102.828 98.757 104.086 100.64 104.944 102.712C105.803 104.785 106.245 107.006 106.245 109.249Z" fill="white"/>
<path d="M89.1635 116.741C93.9631 116.741 97.8539 112.85 97.8539 108.05C97.8539 103.251 93.9631 99.36 89.1635 99.36C84.3639 99.36 80.4731 103.251 80.4731 108.05C80.4731 112.85 84.3639 116.741 89.1635 116.741Z" fill="#6366F1"/>
<path d="M89.0137 151.203C94.558 151.203 99.0526 150.33 99.0526 149.255C99.0526 148.179 94.558 147.307 89.0137 147.307C83.4694 147.307 78.9748 148.179 78.9748 149.255C78.9748 150.33 83.4694 151.203 89.0137 151.203Z" fill="white"/>
<path d="M245.575 95.7704C245.499 95.9178 245.435 96.0709 245.383 96.2284L231.064 100.207L228.483 97.6819L224.163 101.078L228.297 105.992C228.631 106.389 229.085 106.667 229.59 106.785C230.095 106.902 230.625 106.852 231.1 106.642L246.567 99.8144C247.092 100.179 247.715 100.375 248.354 100.376C248.993 100.377 249.617 100.184 250.143 99.8223C250.67 99.4604 251.074 98.9468 251.301 98.3498C251.528 97.7528 251.568 97.1008 251.416 96.4804C251.264 95.8601 250.926 95.3007 250.448 94.8769C249.97 94.453 249.375 94.1847 248.741 94.1076C248.107 94.0306 247.464 94.1484 246.899 94.4454C246.333 94.7424 245.871 95.2046 245.575 95.7704Z" fill="#FFB8B8"/>
<path d="M230.559 100.44L225.185 104.624C225.032 104.743 224.855 104.827 224.666 104.872C224.478 104.916 224.282 104.92 224.092 104.882C223.902 104.844 223.722 104.765 223.565 104.651C223.408 104.538 223.278 104.392 223.182 104.223L219.842 98.3111C219.237 97.5253 218.969 96.5317 219.096 95.5483C219.222 94.5648 219.734 93.6718 220.518 93.0651C221.303 92.4583 222.296 92.1874 223.279 92.3116C224.263 92.4359 225.157 92.9452 225.766 93.7279L230.662 98.4009C230.802 98.5347 230.912 98.6972 230.984 98.8772C231.055 99.0573 231.087 99.2506 231.078 99.4442C231.068 99.6377 231.016 99.8269 230.927 99.9988C230.838 100.171 230.712 100.321 230.559 100.44Z" fill="#6366F1"/>
<path d="M246.948 93.7917L252.398 96.2439C252.627 96.3466 252.805 96.5357 252.893 96.7697C252.982 97.0037 252.974 97.2634 252.872 97.4916L252.226 98.9259C252.302 98.9604 252.362 99.0234 252.391 99.1014C252.421 99.1793 252.418 99.2657 252.384 99.3419L252.126 99.9156C252.092 99.9915 252.029 100.051 251.951 100.08C251.873 100.11 251.786 100.107 251.71 100.073L251.452 100.647C251.528 100.682 251.587 100.745 251.617 100.823C251.646 100.9 251.644 100.987 251.61 101.063L251.352 101.637C251.317 101.713 251.254 101.772 251.176 101.801C251.098 101.831 251.012 101.829 250.936 101.795L247.451 109.54C247.348 109.768 247.159 109.946 246.925 110.035C246.691 110.124 246.432 110.116 246.203 110.013L240.753 107.561C240.525 107.458 240.347 107.269 240.258 107.035C240.169 106.801 240.177 106.542 240.28 106.313L245.7 94.2651C245.803 94.0369 245.992 93.8588 246.226 93.77C246.46 93.6812 246.72 93.689 246.948 93.7917Z" fill="#3F3D56"/>
<path d="M241.743 106.798L246.115 108.767C246.334 108.865 246.583 108.872 246.808 108.788C247.032 108.703 247.214 108.532 247.313 108.314L249.333 103.822L250.034 102.265L251.862 98.201C251.96 97.9824 251.967 97.7339 251.882 97.51C251.797 97.286 251.627 97.1048 251.409 97.0057L250.034 96.386L247.033 95.0366C246.814 94.9388 246.566 94.9319 246.341 95.0174C246.117 95.1029 245.936 95.2738 245.838 95.4927L244.07 99.4215L242.057 103.895L241.29 105.603C241.192 105.821 241.184 106.07 241.269 106.294C241.354 106.518 241.524 106.699 241.743 106.798Z" fill="#F2F2F2"/>
<path d="M232.606 162.454L236.28 162.453L238.028 148.283L232.606 148.283L232.606 162.454Z" fill="#FFB8B8"/>
<path d="M231.669 161.254L238.904 161.254C239.51 161.254 240.11 161.373 240.669 161.605C241.229 161.836 241.737 162.176 242.165 162.604C242.593 163.032 242.933 163.541 243.165 164.1C243.396 164.659 243.516 165.259 243.516 165.865V166.014L231.67 166.015L231.669 161.254Z" fill="#2F2E41"/>
<path d="M242.196 161.555L245.87 161.554L247.618 147.384L242.195 147.384L242.196 161.555Z" fill="#FFB8B8"/>
<path d="M241.259 160.355L248.494 160.355C249.099 160.355 249.699 160.474 250.259 160.706C250.818 160.937 251.326 161.277 251.754 161.705C252.183 162.133 252.522 162.642 252.754 163.201C252.986 163.76 253.105 164.36 253.105 164.966V165.115L241.259 165.116L241.259 160.355Z" fill="#2F2E41"/>
<path d="M216.127 129.201C216.91 131.521 218.394 133.541 220.375 134.98C222.357 136.42 224.736 137.208 227.185 137.235L227.371 137.238C229.267 137.292 231.494 136.681 233.678 135.803C237.994 134.068 242.138 131.29 243.238 130.525L241.374 148.443L240.619 155.707C240.6 155.895 240.62 156.084 240.679 156.264C240.738 156.443 240.833 156.609 240.96 156.749C241.086 156.889 241.241 157.001 241.413 157.078C241.586 157.155 241.772 157.195 241.961 157.196H246.615C246.914 157.196 247.204 157.097 247.44 156.915C247.676 156.733 247.846 156.478 247.922 156.189L255.605 126.926C255.836 126.051 255.854 125.132 255.659 124.248C255.464 123.363 255.062 122.538 254.484 121.84C253.907 121.142 253.172 120.592 252.34 120.235C251.508 119.877 250.602 119.723 249.699 119.785L233.738 120.879L234.853 116.42L220.607 115.473L220.565 115.503C220.223 115.752 219.891 116.013 219.573 116.285C218.779 116.957 218.075 117.728 217.478 118.581C216.411 120.11 215.731 121.875 215.496 123.724C215.26 125.574 215.477 127.453 216.127 129.201Z" fill="#2F2E41"/>
<path d="M216.127 129.201C216.91 131.521 218.394 133.541 220.375 134.98C222.357 136.42 224.736 137.208 227.185 137.235C229.526 136.05 231.786 134.709 233.948 133.222L233.678 135.803L231.329 158.404C231.31 158.592 231.331 158.781 231.389 158.961C231.448 159.14 231.544 159.306 231.67 159.446C231.797 159.586 231.951 159.698 232.124 159.775C232.296 159.852 232.483 159.892 232.672 159.893H237.325C237.624 159.893 237.914 159.794 238.15 159.612C238.387 159.43 238.556 159.175 238.632 158.886L241.374 148.443L246.315 129.623C246.546 128.748 246.564 127.829 246.37 126.945C246.175 126.06 245.772 125.235 245.195 124.537C244.617 123.839 243.882 123.289 243.05 122.932C242.218 122.574 241.313 122.42 240.409 122.482L224.449 123.576L225.563 119.117L217.478 118.581C216.411 120.11 215.731 121.875 215.496 123.724C215.26 125.574 215.477 127.453 216.127 129.201Z" fill="#2F2E41"/>
<path d="M219.553 117.319L219.446 117.306L216.96 105.084C216.939 104.978 214.906 94.4359 221.136 88.9247L221.245 88.1704C221.272 87.9773 221.342 87.7926 221.448 87.629C221.554 87.4653 221.694 87.3266 221.859 87.2224C222.024 87.1182 222.209 87.051 222.403 87.0254C222.596 86.9999 222.793 87.0165 222.979 87.0743L228.848 88.8947C229.18 88.997 229.46 89.224 229.628 89.5279C229.797 89.8319 229.842 90.1894 229.752 90.5254L229.182 92.6955C229.973 93.6245 239.285 104.836 236.041 113.473L234.589 119.152L219.553 117.319Z" fill="#6366F1"/>
<path d="M243.922 107.78C243.782 107.869 243.648 107.968 243.524 108.077L229.17 104.224L228.232 100.738L222.785 101.466L223.847 107.799C223.933 108.311 224.182 108.781 224.558 109.139C224.933 109.497 225.415 109.723 225.93 109.784L242.721 111.767C242.988 112.348 243.425 112.833 243.974 113.159C244.524 113.485 245.159 113.636 245.796 113.592C246.434 113.548 247.042 113.311 247.542 112.912C248.041 112.514 248.407 111.973 248.591 111.361C248.775 110.75 248.769 110.096 248.573 109.488C248.377 108.88 248 108.347 247.494 107.958C246.987 107.569 246.373 107.344 245.735 107.312C245.097 107.28 244.465 107.444 243.922 107.78Z" fill="#FFB8B8"/>
<path d="M228.617 104.168L221.862 105.038C221.67 105.063 221.475 105.046 221.29 104.989C221.105 104.931 220.934 104.834 220.79 104.705C220.646 104.576 220.531 104.417 220.454 104.239C220.376 104.061 220.338 103.869 220.342 103.675L220.471 96.8866C220.35 95.9025 220.624 94.9105 221.233 94.1282C221.842 93.3459 222.736 92.8371 223.72 92.7133C224.704 92.5895 225.697 92.8609 226.481 93.4679C227.265 94.0749 227.776 94.9681 227.902 95.9515L229.743 102.465C229.795 102.651 229.807 102.847 229.778 103.038C229.748 103.23 229.677 103.412 229.57 103.574C229.463 103.736 229.323 103.873 229.159 103.975C228.994 104.078 228.81 104.144 228.617 104.168Z" fill="#6366F1"/>
<path d="M226.716 85.4154C230.781 85.4154 234.076 82.1201 234.076 78.0552C234.076 73.9903 230.781 70.6951 226.716 70.6951C222.651 70.6951 219.356 73.9903 219.356 78.0552C219.356 82.1201 222.651 85.4154 226.716 85.4154Z" fill="#FFB8B8"/>
<path d="M226.329 78.6699L225.407 76.9919C223.662 84.1037 226.745 89.9894 226.745 89.9894L214.778 84.4153L214.892 82.4375L213.708 83.7812L212.007 82.8437L211.782 81.5609L210.498 81.879L215.186 73.3722C219.735 65.2772 226.35 68.3678 226.35 68.3678C236.873 67.8676 235.588 78.2495 235.588 78.2495L226.329 78.6699Z" fill="#2F2E41"/>
<path d="M142.545 133.519C144.242 132.431 142.178 126.184 137.936 119.566C133.693 112.947 128.878 108.464 127.181 109.552C125.484 110.64 127.548 116.887 131.79 123.505C136.033 130.123 140.848 134.607 142.545 133.519Z" fill="#3F3D56"/>
</g>
<defs>
<clipPath id="clip0_7_443">
<rect width="294.42" height="228.651" fill="white" transform="translate(0.789917 0.5)"/>
</clipPath>
</defs>
</svg>
