<svg width="358" height="196" viewBox="0 0 358 196" fill="none" xmlns="http://www.w3.org/2000/svg">
<g clip-path="url(#clip0_7_239)">
<path d="M14.6279 186.954C24.3756 193.977 37.0077 194.329 49.2181 193.467C50.9231 193.346 52.6161 193.205 54.2934 193.053C54.3035 193.05 54.3168 193.051 54.3271 193.049C54.4077 193.041 54.4885 193.033 54.5656 193.029C54.9118 192.996 55.2581 192.964 55.6011 192.931L55.5201 193.086L55.2658 193.565C55.3572 193.405 55.4485 193.248 55.5399 193.087C55.5667 193.039 55.5969 192.991 55.6236 192.943C58.7867 187.438 61.924 181.732 62.7243 175.446C63.5515 168.922 61.2268 161.535 55.4849 158.328C54.7318 157.909 53.9344 157.575 53.1073 157.332C52.7638 157.228 52.4158 157.143 52.0638 157.068C49.9103 156.59 47.6684 156.694 45.5684 157.37C43.4685 158.045 41.5864 159.268 40.1156 160.912C38.6449 162.556 37.6385 164.562 37.2001 166.724C36.7617 168.886 36.907 171.126 37.6211 173.213C32.753 168.221 33.6611 160.123 35.3404 153.355C37.0229 146.587 39.0597 139.057 35.6376 132.978C33.7354 129.594 30.3901 127.495 26.6359 126.649C26.5207 126.625 26.4057 126.6 26.2903 126.578C21.8173 125.672 17.1672 126.487 13.2687 128.86C6.09031 133.383 2.40342 141.96 1.20681 150.362C-0.721144 163.881 3.54546 178.97 14.6279 186.954Z" fill="#F1F1F1"/>
<path d="M17.7751 165.282C18.0581 168.264 18.7744 171.189 19.9016 173.965C20.9403 176.421 22.3404 178.707 24.0554 180.749C27.5589 184.964 32.1913 188.132 37.2223 190.243C41.0692 191.819 45.0997 192.902 49.2181 193.467C50.9231 193.346 52.6161 193.205 54.2934 193.053C54.3035 193.05 54.3168 193.051 54.3271 193.049C54.4077 193.041 54.4885 193.033 54.5656 193.029C54.9118 192.996 55.2581 192.964 55.6011 192.931L55.5201 193.086L55.2658 193.566C55.3572 193.405 55.4485 193.248 55.5399 193.087C55.5667 193.039 55.5969 192.991 55.6236 192.943C52.536 189.867 50.2308 186.095 48.901 181.945C47.5712 177.794 47.2556 173.385 47.9807 169.087C48.7395 164.82 50.4961 160.792 53.1073 157.332C52.7639 157.228 52.4158 157.144 52.0638 157.069C51.0714 158.425 50.201 159.867 49.4626 161.377C46.813 166.762 45.9677 172.857 47.0518 178.76C48.0597 184.102 50.5706 189.045 54.2898 193.009C53.9641 192.986 53.6353 192.96 53.3135 192.93C47.2184 192.414 41.1358 191.104 35.6075 188.42C30.8821 186.181 26.7796 182.815 23.6614 178.618C20.3132 174 18.8379 168.446 18.5844 162.801C18.3157 156.757 19.0999 150.608 20.4791 144.73C21.8875 138.705 24.0278 132.875 26.8524 127.369C26.9156 127.245 26.9284 127.1 26.8881 126.966C26.8478 126.832 26.7575 126.719 26.6359 126.65C26.5346 126.581 26.4104 126.556 26.2903 126.578C26.2316 126.594 26.1771 126.623 26.1309 126.662C26.0848 126.702 26.0482 126.751 26.0238 126.807C25.6753 127.487 25.3333 128.167 25.0044 128.856C22.2646 134.588 20.2475 140.638 18.9994 146.867C17.7878 152.876 17.1411 159.163 17.7751 165.282Z" fill="white"/>
<path d="M141.376 195.155H0.820024C0.722182 195.155 0.628347 195.116 0.559163 195.047C0.489978 194.978 0.451111 194.884 0.451111 194.786C0.451111 194.688 0.489978 194.594 0.559163 194.525C0.628347 194.456 0.722182 194.417 0.820024 194.417H141.376C141.474 194.417 141.568 194.456 141.637 194.525C141.706 194.594 141.745 194.688 141.745 194.786C141.745 194.884 141.706 194.978 141.637 195.047C141.568 195.116 141.474 195.155 141.376 195.155Z" fill="#CBCBCB"/>
<path d="M99.1836 96.0899L92.8282 64.9478L90.0364 41.9464L83.8513 45.9476L84.7057 71.2953L94.5777 97.5579C94.2604 98.1622 94.13 98.8472 94.2031 99.5258C94.2761 100.204 94.5493 100.846 94.988 101.369C95.4266 101.892 96.0108 102.272 96.6663 102.463C97.3219 102.653 98.0191 102.643 98.6694 102.436C99.3197 102.229 99.8937 101.833 100.318 101.299C100.743 100.764 100.999 100.116 101.054 99.4354C101.109 98.7551 100.961 98.0738 100.628 97.4781C100.295 96.8823 99.7921 96.3991 99.1836 96.0899Z" fill="#FFB7B7"/>
<path d="M39.7417 98.4979L41.5009 66.7627L40.9182 43.5997L49.095 46.659L50.4601 71.8615L44.5121 99.2805C44.9139 99.8322 45.1425 100.491 45.1689 101.173C45.1953 101.855 45.0183 102.53 44.6604 103.111C44.3025 103.692 43.7799 104.153 43.1589 104.437C42.538 104.72 41.8468 104.812 41.1733 104.702C40.4998 104.591 39.8743 104.283 39.3765 103.816C38.8786 103.349 38.5308 102.745 38.3774 102.08C38.2239 101.415 38.2717 100.719 38.5146 100.081C38.7575 99.4435 39.1846 98.8923 39.7417 98.4979Z" fill="#FFB7B7"/>
<path d="M56.8672 190.764L61.0451 190.763L63.0328 174.648L56.8665 174.648L56.8672 190.764Z" fill="#FFB7B7"/>
<path d="M55.8013 189.399L64.0295 189.399C65.4202 189.399 66.7543 189.952 67.7376 190.935C68.721 191.918 69.2735 193.252 69.2736 194.643V194.813L55.8015 194.814L55.8013 189.399Z" fill="#2F2E41"/>
<path d="M72.6925 188.915L76.8214 189.553L81.2498 173.931L75.1561 172.989L72.6925 188.915Z" fill="#FFB7B7"/>
<path d="M71.8477 187.404L79.9793 188.661C81.3536 188.874 82.5875 189.624 83.409 190.746C84.2304 191.868 84.5725 193.271 84.3599 194.645L84.3338 194.814L71.0201 192.754L71.8477 187.404Z" fill="#2F2E41"/>
<path d="M55.6399 185.952L55.6182 185.835L40.4926 104.056C39.2919 97.4908 40.2496 90.7133 43.2224 84.7378L52.3773 66.4282L79.6947 70.129L82.9186 93.4402L94.4074 137.91L94.396 137.946L79.6764 184.702L70.0293 185.337L78.5748 143.6L62.9276 108.06L64.0313 185.316L55.6399 185.952Z" fill="#2F2E41"/>
<path d="M80.3305 73.1123L80.1502 72.8298C80.1178 72.7789 76.7996 67.7796 67.77 71.1176C58.5522 74.5257 51.4097 67.9432 51.3386 67.8763L51.3033 67.843L49.2157 49.2367L46.7514 34.1321L54.596 32.7558L58.4527 30.4419L73.7888 30.1689L77.8245 33.343L84.4504 34.0651L85.0569 47.8281L85.0541 47.8431L80.3305 73.1123Z" fill="#6366F1"/>
<path d="M82.5285 49.1594V37.3744L84.3917 33.9741L84.4675 33.9717C85.9343 34.0264 87.3206 34.6563 88.3266 35.7251C90.2007 37.6293 91.0496 40.8018 90.8499 45.1543L90.8463 45.234L82.5285 49.1594Z" fill="#6366F1"/>
<path d="M50.0525 47.8784L40.556 46.7388L40.5485 46.6294C40.2245 41.8937 41.0511 38.3784 43.0053 36.1813C44.7789 34.1873 46.8111 34.0665 46.8967 34.0624L46.9515 34.0598L49.5223 36.3968L50.0525 47.8784Z" fill="#6366F1"/>
<path d="M77.5431 25.4203H52.5537C52.0397 25.4197 51.5469 25.2152 51.1834 24.8517C50.8199 24.4883 50.6154 23.9955 50.6149 23.4814V14.4335C50.6149 10.6055 52.1355 6.9343 54.8424 4.22748C57.5492 1.52067 61.2204 0 65.0484 0C68.8764 0 72.5476 1.52067 75.2545 4.22748C77.9613 6.9343 79.4819 10.6055 79.4819 14.4335V23.4814C79.4814 23.9955 79.2769 24.4883 78.9134 24.8517C78.55 25.2152 78.0571 25.4197 77.5431 25.4203Z" fill="#2F2E41"/>
<path d="M74.914 19.8249C77.7173 14.6968 75.8326 8.26703 70.7044 5.46372C65.5763 2.66042 59.1465 4.54509 56.3432 9.67326C53.5399 14.8014 55.4246 21.2311 60.5528 24.0345C65.6809 26.8378 72.1107 24.9531 74.914 19.8249Z" fill="#FFB7B7"/>
<path d="M75.6871 15.0798H61.716C61.4536 15.0795 61.2002 14.9835 61.0035 14.8097C60.8067 14.636 60.6801 14.3965 60.6472 14.1361L60.4663 12.6891C60.4489 12.55 60.3868 12.4203 60.2892 12.3196C60.1917 12.2188 60.064 12.1526 59.9255 12.1308C59.787 12.109 59.6452 12.1328 59.5214 12.1987C59.3976 12.2646 59.2986 12.3689 59.2394 12.496L58.3235 14.4584C58.2364 14.6438 58.0984 14.8006 57.9256 14.9107C57.7528 15.0207 57.5523 15.0793 57.3475 15.0798H55.2253C55.0752 15.0799 54.9267 15.0485 54.7894 14.9878C54.6521 14.9271 54.529 14.8383 54.4281 14.7272C54.3271 14.6161 54.2505 14.4852 54.2031 14.3427C54.1557 14.2003 54.1387 14.0495 54.153 13.9001L54.9898 5.15974C55.0077 4.97274 55.0738 4.79361 55.1817 4.63983C55.2896 4.48606 55.4356 4.36293 55.6053 4.28247C62.0036 1.29554 68.492 1.29932 74.8903 4.29383C75.0526 4.37011 75.1933 4.48566 75.2997 4.63002C75.4061 4.77438 75.4749 4.94299 75.4997 5.1206L76.7532 13.8496C76.7752 14.0024 76.7641 14.1582 76.7206 14.3063C76.6771 14.4545 76.6023 14.5916 76.5012 14.7082C76.4001 14.8249 76.275 14.9185 76.1346 14.9826C75.9941 15.0467 75.8415 15.0799 75.6871 15.0798Z" fill="#2F2E41"/>
<path d="M99.2162 98.079L98.6946 97.5573L121.369 74.8828H165.309L187.479 52.2555H230.852L252.734 30.2026H354.598V30.9405H253.042L231.159 52.9934H187.789L165.619 75.6206H121.675L99.2162 98.079Z" fill="#3F3D56"/>
<path d="M188.218 66.4044C195.756 66.4044 201.868 60.2932 201.868 52.7546C201.868 45.216 195.756 39.1048 188.218 39.1048C180.679 39.1048 174.568 45.216 174.568 52.7546C174.568 60.2932 180.679 66.4044 188.218 66.4044Z" fill="white"/>
<path d="M253.147 34.3089C255.184 34.3089 256.836 32.6572 256.836 30.6198C256.836 28.5823 255.184 26.9307 253.147 26.9307C251.109 26.9307 249.457 28.5823 249.457 30.6198C249.457 32.6572 251.109 34.3089 253.147 34.3089Z" fill="#CBCBCB"/>
<path d="M353.86 34.3089C355.897 34.3089 357.549 32.6572 357.549 30.6198C357.549 28.5823 355.897 26.9307 353.86 26.9307C351.822 26.9307 350.171 28.5823 350.171 30.6198C350.171 32.6572 351.822 34.3089 353.86 34.3089Z" fill="#CBCBCB"/>
<path d="M303.688 34.3089C305.725 34.3089 307.377 32.6572 307.377 30.6198C307.377 28.5823 305.725 26.9307 303.688 26.9307C301.65 26.9307 299.999 28.5823 299.999 30.6198C299.999 32.6572 301.65 34.3089 303.688 34.3089Z" fill="#CBCBCB"/>
<path d="M188.218 66.7733C185.445 66.7733 182.735 65.9511 180.429 64.4107C178.124 62.8703 176.327 60.6809 175.266 58.1193C174.205 55.5577 173.928 52.7391 174.468 50.0197C175.009 47.3003 176.345 44.8024 178.305 42.8419C180.266 40.8813 182.764 39.5462 185.483 39.0053C188.202 38.4644 191.021 38.742 193.583 39.803C196.144 40.8641 198.334 42.6609 199.874 44.9662C201.414 47.2716 202.237 49.982 202.237 52.7546C202.232 56.4713 200.754 60.0346 198.126 62.6627C195.498 65.2908 191.935 66.7691 188.218 66.7733ZM188.218 39.4737C185.591 39.4737 183.023 40.2526 180.839 41.712C178.655 43.1713 176.953 45.2455 175.948 47.6722C174.943 50.099 174.68 52.7693 175.192 55.3456C175.705 57.9218 176.969 60.2882 178.827 62.1456C180.684 64.003 183.051 65.2678 185.627 65.7803C188.203 66.2927 190.873 66.0297 193.3 65.0245C195.727 64.0193 197.801 62.3171 199.26 60.1331C200.72 57.949 201.499 55.3813 201.499 52.7546C201.495 49.2335 200.094 45.8578 197.604 43.368C195.115 40.8782 191.739 39.4777 188.218 39.4737Z" fill="#3F3D56"/>
<path d="M188.218 62.5074C193.604 62.5074 197.97 58.1409 197.97 52.7547C197.97 47.3684 193.604 43.002 188.218 43.002C182.832 43.002 178.465 47.3684 178.465 52.7547C178.465 58.1409 182.832 62.5074 188.218 62.5074Z" fill="#6366F1"/>
<path d="M187.288 56.8717L184.37 53.1184L186.067 51.798L187.449 53.5751L192.118 48.6461L193.679 50.1254L187.288 56.8717Z" fill="white"/>
<path d="M121.076 88.9081C128.614 88.9081 134.725 82.7969 134.725 75.2583C134.725 67.7197 128.614 61.6085 121.076 61.6085C113.537 61.6085 107.426 67.7197 107.426 75.2583C107.426 82.7969 113.537 88.9081 121.076 88.9081Z" fill="white"/>
<path d="M121.076 89.277C118.303 89.277 115.593 88.4548 113.287 86.9144C110.982 85.374 109.185 83.1846 108.124 80.623C107.063 78.0614 106.785 75.2427 107.326 72.5234C107.867 69.804 109.202 67.3061 111.163 65.3456C113.123 63.385 115.621 62.0498 118.341 61.5089C121.06 60.968 123.879 61.2456 126.44 62.3067C129.002 63.3677 131.191 65.1645 132.732 67.4699C134.272 69.7753 135.094 72.4856 135.094 75.2583C135.09 78.975 133.612 82.5382 130.984 85.1663C128.356 87.7944 124.792 89.2728 121.076 89.277ZM121.076 61.9774C118.449 61.9774 115.881 62.7563 113.697 64.2156C111.513 65.675 109.811 67.7491 108.806 70.1759C107.8 72.6027 107.537 75.273 108.05 77.8492C108.562 80.4255 109.827 82.7919 111.685 84.6493C113.542 86.5066 115.908 87.7715 118.485 88.284C121.061 88.7964 123.731 88.5334 126.158 87.5282C128.585 86.523 130.659 84.8208 132.118 82.6367C133.578 80.4527 134.356 77.885 134.356 75.2583C134.352 71.7372 132.952 68.3615 130.462 65.8717C127.972 63.3819 124.597 61.9814 121.076 61.9774Z" fill="#3F3D56"/>
<path d="M121.076 85.011C126.462 85.011 130.828 80.6445 130.828 75.2583C130.828 69.872 126.462 65.5056 121.076 65.5056C115.689 65.5056 111.323 69.872 111.323 75.2583C111.323 80.6445 115.689 85.011 121.076 85.011Z" fill="#6366F1"/>
<path d="M120.146 79.3753L117.227 75.622L118.925 74.3016L120.307 76.0787L124.976 71.1497L126.537 72.629L120.146 79.3753Z" fill="white"/>
</g>
<defs>
<clipPath id="clip0_7_239">
<rect width="357.098" height="195.155" fill="white" transform="translate(0.451111)"/>
</clipPath>
</defs>
</svg>
