<svg width="346" height="231" viewBox="0 0 346 231" fill="none" xmlns="http://www.w3.org/2000/svg">
<g clip-path="url(#clip0_7_312)">
<path d="M59.5037 219.765L64.7038 221.174L72.612 201.785L64.9363 199.706L59.5037 219.765Z" fill="#FFB6B6"/>
<path d="M57.8507 225.141L73.8431 229.472L73.8979 229.27C74.345 227.619 74.118 225.858 73.2669 224.375C72.4158 222.891 71.0103 221.807 69.3595 221.359L69.3591 221.359L67.0382 218.352L60.9875 219.092L59.5915 218.714L57.8507 225.141Z" fill="#2F2E41"/>
<path d="M95.4115 224.278L100.799 224.278L103.362 203.495L95.4103 203.496L95.4115 224.278Z" fill="#FFB6B6"/>
<path d="M95.2215 229.898L111.79 229.898V229.688C111.79 227.978 111.111 226.338 109.901 225.128C108.692 223.919 107.051 223.239 105.341 223.239H105.341L102.314 220.943L96.6675 223.24L95.2212 223.24L95.2215 229.898Z" fill="#2F2E41"/>
<path d="M97.7117 104.442L104.942 206.853L93.2981 207.885L77.0535 131.986L78.8536 175.9L72.4062 210.44L62.5503 205.674L62.714 169.71L49.7742 111.593L53.2182 104.442H97.7117Z" fill="#2F2E41"/>
<path d="M51.4254 117.184L51.3532 117.083C47.4942 111.68 53.2981 98.6976 54.1734 96.8157C53.134 96.4784 52.2436 95.7911 51.6539 94.8711C51.0642 93.951 50.8117 92.8549 50.9394 91.7696L51.3167 88.5619L51.7101 85.4156L48.8922 82.5977L48.8843 82.5274L47.2626 68.338L44.9048 58.9135C44.0164 55.3507 44.0921 51.6157 45.1241 48.0918C46.1562 44.5679 48.1074 41.3822 50.7775 38.8616L56.2276 37.9962L62.8512 31.6143H73.5325L77.1949 35.1134C84.0317 36.3124 85.2062 35.9209 91.079 42.9682L88.4104 64.8783L87.7447 67.8925L87.7467 71.9807L89.4392 73.8616C90.0488 74.5391 90.4918 75.3496 90.7329 76.2286C90.9739 77.1076 91.0063 78.0307 90.8276 78.9245L90.605 80.0372C92.3505 80.7853 94.0161 94.0791 94.4141 95.936L95.0085 98.7097C95.517 99.3808 98.8738 103.857 98.8738 105.08C98.8738 105.264 98.7382 105.441 98.4472 105.638C96.1596 107.187 87.0394 118.176 81.4434 115.936C75.4826 113.553 51.7873 117.129 51.5485 117.165L51.4254 117.184Z" fill="#3F3D56"/>
<path d="M49.9904 91.706C49.9904 91.706 52.7333 76.2042 49.97 70.3742L39.0076 71.1572L40.6759 93.2725L50.2591 117.827C50.1128 118.584 50.1693 119.366 50.4228 120.093C50.6764 120.821 51.1179 121.468 51.7027 121.97C52.2874 122.472 52.9945 122.81 53.7522 122.95C54.5099 123.091 55.2912 123.028 56.0167 122.768C56.7423 122.509 57.3863 122.062 57.8834 121.474C58.3805 120.885 58.7129 120.175 58.847 119.416C58.9811 118.657 58.912 117.877 58.6468 117.153C58.3816 116.43 57.9297 115.789 57.3369 115.297L49.9904 91.706Z" fill="#FFB6B6"/>
<path d="M39.0076 62.1524L39.6861 54.764C39.9414 51.9833 40.7441 49.2805 42.0477 46.8111C43.3514 44.3417 45.1305 42.1545 47.2826 40.3751C48.6197 39.2777 50.2372 38.5762 51.9521 38.3498C53.667 38.1235 55.4111 38.3812 56.9872 39.0941C59.1173 40.0747 60.7954 41.8276 61.6825 43.9982C62.5695 46.1689 62.5992 48.5955 61.7655 50.7872C59.2318 57.4321 60.1468 64.4594 55.2063 65.3161L55.743 67.8697L50.8854 83.7223L37.05 82.1196L39.0076 62.1524Z" fill="#3F3D56"/>
<path d="M93.3418 112.73C92.857 113.329 92.5393 114.046 92.421 114.807C92.3027 115.569 92.3879 116.348 92.6681 117.066C92.9482 117.783 93.4133 118.414 94.0162 118.894C94.619 119.374 95.3381 119.686 96.1004 119.798C96.8627 119.91 97.6412 119.819 98.3567 119.533C99.0722 119.247 99.6993 118.777 100.174 118.17C100.649 117.564 100.956 116.842 101.062 116.079C101.168 115.316 101.07 114.538 100.778 113.825L105.364 87.8681L102.667 65.8546L91.7632 67.2349C90.1958 73.4933 95.9232 88.1571 95.9232 88.1571L93.3418 112.73Z" fill="#FFB6B6"/>
<path d="M106.734 76.221L93.4813 80.5036L88.3787 72.5434L88.4046 69.9341C83.3921 70.0621 80.145 56.3587 76.3584 50.339C75.1114 48.3531 74.665 45.9678 75.1095 43.6654C75.554 41.363 76.8562 39.3153 78.7528 37.9363C80.1587 36.9284 81.8184 36.3339 83.5445 36.2198C85.2705 36.1058 86.994 36.4768 88.5203 37.2908C90.9793 38.614 93.1525 40.4103 94.9148 42.5763C96.6771 44.7424 97.9938 47.2355 98.789 49.9122L100.902 57.0244L106.734 76.221Z" fill="#3F3D56"/>
<path d="M67.4713 28.5312C74.0227 28.5312 79.3336 23.2202 79.3336 16.6688C79.3336 10.1174 74.0227 4.80646 67.4713 4.80646C60.9198 4.80646 55.6089 10.1174 55.6089 16.6688C55.6089 23.2202 60.9198 28.5312 67.4713 28.5312Z" fill="#FFB6B6"/>
<path d="M58.8623 25.0301C58.7587 24.9393 58.661 24.8424 58.5598 24.749C58.5562 24.7586 58.5556 24.7684 58.5518 24.7779L58.8623 25.0301Z" fill="#2F2E41"/>
<path d="M77.1924 4.1422C76.603 3.19342 75.7867 2.40632 74.817 1.85195C74.1543 1.5305 73.4578 1.28374 72.7405 1.11622L70.8632 0.604006C69.9013 0.306367 68.9117 0.10711 67.9096 0.00929665C66.518 -0.0593524 65.1343 0.255734 63.9096 0.920134C62.685 1.58454 61.6664 2.5727 60.9653 3.7767C60.3981 4.78272 59.9431 6.03635 58.8484 6.4044C57.9658 6.7012 57.0027 6.28256 56.0751 6.36377C55.5315 6.44255 55.0157 6.65419 54.5735 6.97994C54.1312 7.3057 53.7761 7.73552 53.5397 8.2313C53.0774 9.229 52.8499 10.3194 52.8746 11.4187C52.8381 13.9146 53.3252 16.3904 54.3045 18.6864C55.2838 20.9824 56.7334 23.0477 58.56 24.749C58.8662 23.942 58.3619 23.0707 57.9632 22.2987C57.5599 21.5175 57.3106 20.4285 57.9862 19.8659C58.7379 19.2398 59.9423 19.8469 60.8313 19.4387C61.1157 19.2753 61.3552 19.044 61.5285 18.7655C61.7017 18.487 61.8033 18.1699 61.8242 17.8426C61.9102 17.194 61.8204 16.5346 61.8611 15.8816C61.9012 15.238 62.0677 14.6086 62.3511 14.0293C62.6344 13.4501 63.0291 12.9323 63.5126 12.5056C63.996 12.0788 64.5588 11.7515 65.1688 11.5423C65.7787 11.3331 66.4239 11.246 67.0675 11.2861C67.0823 11.2871 67.0971 11.288 67.1119 11.2891C69.1355 11.4336 71.0993 12.8164 73.0466 12.2475C73.9606 11.9805 74.7403 11.3007 75.6856 11.1863C76.7326 11.0596 77.7176 11.6505 78.6066 12.2179C78.9296 10.8462 78.9708 9.42313 78.7277 8.03501C78.4847 6.64688 77.9623 5.32254 77.1924 4.1422Z" fill="#2F2E41"/>
<path d="M139.18 223.234L136.161 218.383L135.558 221.155C135.452 221.64 135.347 222.134 135.249 222.623C134.391 221.891 133.479 221.214 132.587 220.564C129.846 218.575 127.107 216.583 124.369 214.589L125.226 219.561C125.755 222.623 126.307 225.747 127.614 228.547C127.759 228.864 127.916 229.177 128.084 229.482H140.824C140.927 229.199 140.997 228.905 141.036 228.605C141.039 228.586 141.04 228.566 141.039 228.547C141.239 226.648 140.19 224.859 139.18 223.234Z" fill="#F0F0F0"/>
<path d="M154.003 229.959L30.5356 230.079C30.4124 230.079 30.2944 230.029 30.2075 229.942C30.1206 229.855 30.0718 229.736 30.0718 229.613C30.0718 229.49 30.1206 229.372 30.2075 229.284C30.2944 229.197 30.4124 229.148 30.5356 229.147L154.003 229.027C154.126 229.027 154.244 229.077 154.331 229.164C154.418 229.251 154.467 229.37 154.467 229.493C154.467 229.616 154.418 229.734 154.331 229.822C154.244 229.909 154.126 229.958 154.003 229.959Z" fill="#CACACA"/>
<path d="M281.625 75.7173C281.598 89.4225 276.445 102.622 267.18 112.721C257.914 122.819 245.206 129.087 231.554 130.291C217.902 131.495 204.293 127.548 193.403 119.227C182.513 110.906 175.13 98.8122 172.704 85.3233C170.279 71.8343 172.988 57.9261 180.297 46.3328C187.607 34.7395 198.988 26.2998 212.205 22.673C225.422 19.0461 239.517 20.4944 251.72 26.7332C263.923 32.972 273.35 43.5499 278.15 56.3873C278.269 56.7097 278.386 57.032 278.5 57.3575V57.3606C279.006 58.7913 279.452 60.2486 279.838 61.7326C281.028 66.2987 281.629 70.9985 281.625 75.7173Z" fill="#3F3D56"/>
<path d="M220.315 38.4317C217.832 37.0887 215.074 36.3306 212.253 36.2151C209.432 36.0997 206.622 36.6301 204.037 37.7657C201.761 38.7562 199.365 40.5331 198.605 43.7417C201.676 41.9295 205.651 44.7928 206.441 49.3862L206.257 49.4371C205.84 52.6186 206.771 56.0825 208.575 58.0553C208.709 57.1652 209.04 56.316 209.543 55.5697C210.046 54.8233 210.71 54.1984 211.485 53.7403C212.81 52.8691 214.276 52.2362 215.287 50.7388C216.487 48.9635 216.791 46.3689 217.268 44.0021C217.744 41.6352 218.648 39.0912 220.315 38.4317Z" fill="#6366F1"/>
<path d="M203.126 65.5057C202.276 66.7829 201.14 67.5843 200.121 68.5821C198.944 69.6525 198.172 71.0956 197.935 72.6685C197.806 73.7799 198.005 74.9097 197.978 76.0334C197.95 77.1571 197.575 78.422 196.811 78.7014C195.604 79.1373 194.683 76.8961 193.443 76.7396C192.457 76.6167 191.57 78.1672 191.856 79.5119C192.141 80.8567 193.483 81.4523 194.253 80.5742C194.95 81.7439 194.459 83.8655 193.412 84.2247C193.302 84.9615 193.191 85.6953 193.084 86.4321C190.437 84.5808 187.763 82.6988 185.513 79.9878C183.01 76.9983 181.457 73.329 181.055 69.4509C180.763 66.3347 181.196 62.7702 179.765 60.3724C178.62 58.4535 176.655 58.0298 174.887 58.1496C174.564 58.171 174.239 58.2079 173.917 58.2478C174.959 55.1155 176.284 52.0841 177.874 49.1908C178.234 49.0363 178.568 48.8282 178.866 48.5736C180.511 47.1767 181.242 44.349 182.577 42.3933C182.663 42.2674 182.752 42.1446 182.845 42.0249C184.211 40.2411 186.041 39.3231 187.809 38.4696C191.724 36.5692 195.752 34.6442 199.884 34.9082L198.708 35.0218C197.336 38.8657 195.962 42.7096 194.588 46.5534C194.379 47.1429 194.168 47.7334 193.956 48.3249C193.176 50.5109 192.371 52.8381 192.491 55.2851C192.562 56.7342 193.065 58.2816 194.023 58.7789C194.917 59.2395 195.893 58.6745 196.756 58.1158C197.121 57.8824 197.483 57.6491 197.849 57.4127C199.159 56.5684 200.612 55.7026 201.996 56.2675C203.264 56.7833 204.201 58.5057 204.379 60.3631C204.542 62.1687 204.102 63.9775 203.126 65.5057Z" fill="#6366F1"/>
<path d="M210.923 91.7489C207.094 89.3914 203.266 87.0339 199.437 84.6765L199.502 84.5091C197.121 85.4158 196.133 89.6474 196.526 93.108C196.92 96.5686 198.254 99.6621 198.928 103.034C199.836 107.648 199.493 112.422 197.934 116.859C202.969 111.21 207.425 105.07 211.234 98.5317C211.767 97.7077 212.172 96.8085 212.437 95.8641C212.719 94.8576 212.618 93.7829 212.156 92.8457C211.843 92.3833 211.419 92.0063 210.923 91.7489Z" fill="#6366F1"/>
<path d="M195.812 48.8597C195.363 49.8251 195.293 50.9244 195.618 51.9386C195.996 52.7557 196.681 53.3904 197.525 53.7046L199.641 54.7532C200.344 55.1021 201.103 55.4545 201.82 55.1674C202.686 54.8212 203.286 53.4645 203.131 52.205C202.965 50.8648 202.121 49.9428 201.339 49.1578C200.246 48.0591 199.152 46.9604 198.059 45.8618L197.443 46.6165C196.776 47.2666 196.225 48.0251 195.812 48.8597Z" fill="#6366F1"/>
<path d="M270.284 63.1877C271.235 63.4119 272.187 63.636 273.139 63.8601C272.973 67.0746 271.38 70.0496 269.243 71.1272C268.353 71.5755 267.361 71.7413 266.624 72.5795C265.958 73.3409 265.62 74.5259 265.31 75.6588C264.767 77.636 264.223 79.6132 263.68 81.5904C263.096 83.7211 262.347 86.0883 260.831 86.8558C259.529 87.5159 258.04 86.7084 257.039 85.3544C256.038 84.0005 255.427 82.1799 254.834 80.4053C254.871 82.3396 253.972 84.2369 252.698 84.9093C251.42 85.5816 249.867 84.9737 249.013 83.4725C248.399 82.3948 248.145 80.9733 247.543 79.8803C246.941 78.7873 245.679 78.161 245.022 79.1865C244.589 79.8681 244.645 80.9119 244.43 81.7777C244.321 82.3525 244.037 82.8793 243.615 83.2848C243.194 83.6904 242.656 83.9545 242.078 84.0404C241.546 84.0282 241.022 83.9079 240.538 83.6867C240.054 83.4656 239.62 83.1482 239.262 82.754C237.382 80.8308 236.158 78.3624 235.766 75.7018C235.499 74.4261 235.533 73.1061 235.864 71.8456C236.241 70.6514 237.153 69.7303 238.059 69.9575C238.655 68.6986 237.479 67.0285 236.419 67.1759C235.357 67.3232 234.525 68.4623 233.653 69.3373C232.784 70.2123 231.569 70.8478 230.694 69.9789C230.713 70.2967 230.606 70.6093 230.395 70.8479C230.184 71.0864 229.887 71.2314 229.569 71.251C229.538 71.2529 229.506 71.2536 229.475 71.2531C228.893 71.0861 228.352 70.7996 227.887 70.4118C225.883 69.1623 223.337 69.9913 221.913 72.3553C222.803 68.5666 224.108 64.2193 226.844 63.3289C227.961 62.9636 229.18 63.2644 230.236 62.632C232.106 61.5114 232.484 57.2775 230.869 55.5307C231.074 57.1824 231.034 59.1105 230.162 60.2403C229.291 61.3702 227.461 60.6333 227.571 58.9631C227.546 59.198 227.448 59.4191 227.29 59.5946C227.132 59.77 226.922 59.891 226.691 59.94C226.46 59.9891 226.219 59.9638 226.003 59.8677C225.788 59.7717 225.608 59.6098 225.49 59.4052C224.909 58.5211 224.959 57.075 225.37 56.0188C225.794 55.0623 226.402 54.1985 227.16 53.4767C228.618 51.914 230.098 50.3329 231.787 49.3504C233.478 48.3679 235.431 48.0364 237.126 49.0127C238.019 49.5285 238.805 50.3881 239.717 50.8425C239.931 50.9755 240.17 51.0649 240.418 51.1058C240.667 51.1466 240.922 51.138 241.167 51.0805C241.413 51.023 241.645 50.9177 241.849 50.7706C242.054 50.6235 242.228 50.4375 242.361 50.2233C242.371 50.2067 242.381 50.19 242.391 50.1732C243.07 48.9819 242.75 47.2135 243.002 45.7245C243.453 43.0934 246.084 41.8622 247.543 43.5999C246.453 43.3206 245.326 44.61 245.191 46.1728C245.053 47.7355 245.842 49.3136 246.898 49.7864C248.673 50.5723 250.41 48.5951 251.752 46.7653C253.152 44.8495 254.554 42.9347 255.958 41.021C256.182 40.6951 256.434 40.3891 256.71 40.1061C257.15 39.6774 257.736 39.432 258.35 39.4195C258.964 39.4069 259.56 39.6282 260.017 40.0385C261.435 41.196 262.102 43.5693 263.265 45.2026C264.954 47.5758 267.481 48.153 269.832 48.6136C271.585 48.9544 273.34 49.2972 275.095 49.6421C276.265 51.8187 277.285 54.0723 278.15 56.3873C274.931 57.8549 272.201 60.2151 270.284 63.1877Z" fill="#6366F1"/>
<path d="M279.838 61.7324C279.478 62.7927 279.282 63.9013 279.255 65.0206C277.75 63.1846 277.511 59.743 278.499 57.3605C279.006 58.7912 279.452 60.2485 279.838 61.7324Z" fill="#6366F1"/>
<path d="M275.951 100.128C274.636 102.799 273.106 105.359 271.377 107.782C270.271 107.309 269.083 108.154 268.049 108.946C266.968 109.775 265.669 110.582 264.561 109.827C263.428 109.053 263.063 106.889 263.422 105.173C263.835 103.589 264.557 102.104 265.546 100.801C266.467 99.4252 267.453 97.9975 268.733 97.4633C270.017 96.9291 271.665 97.6844 272.04 99.5081L272.949 99.4774C272.439 98.7774 272.706 97.3282 273.391 97.0734C274.18 96.7756 274.864 97.8594 275.331 98.8173C275.54 99.2502 275.752 99.6862 275.951 100.128Z" fill="#6366F1"/>
<path d="M241.146 87.16C239.193 87.2829 237.645 84.8782 236.617 82.5125C235.589 80.1468 234.651 77.4415 232.888 76.2374C231.881 75.5493 230.733 75.455 229.641 75.1215C229.021 74.965 228.448 74.6632 227.968 74.2409C227.489 73.8186 227.116 73.2881 226.883 72.6934L225.644 72.1928C223.91 73.0592 222.323 74.191 220.939 75.5473C219.358 77.2272 218.373 79.3807 218.136 81.6758C217.899 84.156 218.773 86.9215 220.406 87.8532C221.697 88.5894 223.199 88.1254 224.507 88.7993C226.14 89.6413 227.109 92.0874 227.476 94.5026C227.843 96.9177 227.75 99.4276 228.013 101.87C228.276 104.313 228.999 106.854 230.497 108.106C232.371 109.672 235.121 108.371 235.962 105.519C236.375 104.121 236.361 102.543 236.669 101.091C237.212 98.534 238.678 96.6371 239.841 94.5398C241.004 92.4425 241.919 89.594 241.146 87.16Z" fill="#6366F1"/>
<path d="M221.844 62.0362C222.026 62.2039 222.196 62.3844 222.352 62.5763C222.514 62.8556 222.597 63.1738 222.592 63.4966C222.586 63.8195 222.493 64.1347 222.321 64.4083C222.556 64.3949 222.786 64.3328 222.996 64.2261C223.207 64.1193 223.392 63.9701 223.542 63.7879C223.898 63.3819 224.212 62.9401 224.478 62.4696C224.603 62.3085 224.692 62.1226 224.739 61.9244C224.787 61.7261 224.792 61.5199 224.754 61.3197C224.661 61.0563 224.443 60.944 224.29 60.7459C224.078 60.3587 223.933 59.9382 223.862 59.5025C223.777 59.0942 223.58 58.7175 223.293 58.415C223.006 58.1124 222.64 57.8959 222.237 57.7898L222.335 57.8085C222.168 57.9074 222.037 58.0559 221.959 58.2333C221.881 58.4107 221.86 58.608 221.9 58.7976C221.959 59.1807 222.205 59.4988 222.181 59.8895C222.145 60.4514 221.584 60.7151 221.549 61.2771C221.544 61.559 221.65 61.8317 221.844 62.0362Z" fill="#6366F1"/>
<path d="M218.497 52.4887L218.506 52.487C218.566 52.432 218.622 52.3723 218.673 52.3087L218.497 52.4887Z" fill="#6366F1"/>
<path d="M219.083 55.1253C219.317 54.9194 219.491 54.653 219.584 54.3552C219.678 54.0574 219.688 53.7397 219.613 53.4366C219.471 52.7978 218.969 52.3682 218.506 52.4862C218.371 52.6224 218.204 52.7223 218.021 52.7763C217.837 52.8304 217.643 52.8369 217.456 52.7952C217.17 52.7214 216.855 52.5315 216.607 52.7473C216.465 52.9085 216.365 53.1027 216.318 53.3122C216.226 53.5944 216.134 53.8766 216.042 54.1588C215.998 54.2599 215.987 54.3719 216.009 54.4797C216.027 54.5228 216.055 54.5608 216.092 54.5898C216.128 54.6188 216.172 54.6379 216.218 54.6454C216.769 54.808 217.321 54.9706 217.873 55.1332C218.063 55.2207 218.269 55.2654 218.479 55.264C218.688 55.2627 218.894 55.2153 219.083 55.1253Z" fill="#6366F1"/>
<path d="M260.727 91.5374C260.472 91.1199 260.217 90.7024 259.962 90.285C259.712 89.8015 259.37 89.3715 258.954 89.0192C258.864 88.9439 258.761 88.887 258.649 88.8519C258.537 88.8167 258.419 88.8039 258.302 88.8142C258.185 88.8245 258.072 88.8577 257.968 88.912C257.864 88.9662 257.771 89.0404 257.696 89.1304L257.683 89.1466L257.714 89.3851C258.397 90.1171 258.862 91.0249 259.057 92.0066C259.116 92.4333 259.095 92.8748 259.146 93.3034C259.152 93.502 259.196 93.6977 259.277 93.8792C259.358 94.0607 259.474 94.2244 259.619 94.361C260.02 94.6292 260.492 94.2337 260.777 93.7512C261.033 93.3548 261.148 92.8839 261.103 92.4145C261.039 92.0995 260.911 91.8009 260.727 91.5374Z" fill="#6366F1"/>
<path d="M264.728 92.0807C264.776 91.6899 264.744 91.2932 264.634 90.9151C264.616 90.4035 264.752 89.8982 265.024 89.4645C265.294 89.0554 265.498 88.6066 265.63 88.1344C265.686 87.9192 265.676 87.6924 265.601 87.483C265.517 87.2934 265.312 87.2069 265.195 87.3571L265.446 87.5187C265.107 87.4582 264.759 87.4751 264.428 87.568C264.239 87.6404 264.07 87.7573 263.935 87.9087C263.801 88.0602 263.705 88.2418 263.656 88.4381C263.614 88.7443 263.547 89.0463 263.453 89.3409C263.304 89.6486 263.014 89.7509 262.832 90.021C262.708 90.2604 262.645 90.527 262.649 90.7966C262.654 91.0663 262.725 91.3306 262.857 91.5658C263.086 91.9504 263.45 92.2363 263.877 92.3679C264.184 92.4778 264.587 92.4836 264.728 92.0807Z" fill="#6366F1"/>
<path d="M271.851 94.2301C271.962 94.5184 272.11 94.7908 272.292 95.0402C272.634 95.3838 273.097 95.1726 273.511 95.0892C273.886 95.0299 274.271 95.0733 274.623 95.2148C274.976 95.3563 275.284 95.5906 275.515 95.8929C275.354 95.0927 275.004 94.3427 274.493 93.7058C273.983 93.069 273.327 92.564 272.581 92.2332C271.612 91.8976 270.59 91.7379 269.564 91.7614L269.389 91.8063C269.836 93.1058 271.237 93.0768 271.851 94.2301Z" fill="#6366F1"/>
<path d="M241.68 96.888L241.683 96.8936L241.734 96.7955L241.68 96.888Z" fill="#6366F1"/>
<path d="M240.599 98.9797C240.364 99.4076 240.161 99.8528 239.993 100.312C239.771 101.055 239.624 101.818 239.554 102.59C239.499 103.03 239.482 103.591 239.757 103.805C239.836 103.857 239.932 103.879 240.026 103.866C240.119 103.853 240.206 103.807 240.268 103.735C240.421 103.573 240.546 103.388 240.638 103.185C241.179 102.254 241.599 101.257 241.887 100.219C242.189 99.1187 242.117 97.9491 241.683 96.8936C241.322 97.589 240.961 98.2844 240.599 98.9797Z" fill="#6366F1"/>
<path d="M230.174 43.2509C230.346 43.4187 230.563 43.5326 230.798 43.5786C231.034 43.6246 231.278 43.6006 231.5 43.5097C231.96 43.3086 232.382 43.0298 232.748 42.6856C233.05 42.4616 233.307 42.1815 233.504 41.8606C233.612 41.6688 233.682 41.4574 233.708 41.2387C233.735 41.0199 233.718 40.7981 233.659 40.5859C233.574 40.3826 233.439 40.2043 233.267 40.0677C233.094 39.9311 232.889 39.8408 232.672 39.8053C232.06 39.6237 231.447 39.4421 230.835 39.2606L231.278 38.8614C230.822 38.6168 230.318 39.0707 230.033 39.6327C229.851 39.9996 229.723 40.3916 229.655 40.7958C229.559 41.2182 229.555 41.6565 229.644 42.0805C229.734 42.5045 229.915 42.9038 230.174 43.2509Z" fill="#6366F1"/>
<path d="M240.984 39.6219C241.157 39.8122 241.395 39.9296 241.651 39.9504C241.907 39.9713 242.162 39.8939 242.363 39.7341C242.536 39.6041 242.68 39.4391 242.785 39.2499C242.89 39.0607 242.954 38.8514 242.972 38.6358C243.016 38.1542 242.778 37.6189 242.438 37.5773L242.515 37.1264C241.86 37.008 241.054 36.9843 240.703 37.78C240.584 38.0848 240.548 38.4153 240.597 38.7385C240.647 39.0617 240.78 39.3664 240.984 39.6219Z" fill="#6366F1"/>
<g opacity="0.35">
<path d="M344.639 78.44C348.255 76.8634 340.922 75.9457 332.603 75.6439C324.284 75.3422 314.22 75.3589 308.903 74.5006C303.761 73.6705 304.14 72.1946 303.708 70.8574C303.275 69.5202 301.298 68.149 293.275 67.8518C283.277 67.4814 266.789 68.9072 259.242 68.0512C252.199 67.2524 256.385 64.7466 246.115 64.6507C240.25 64.596 232.695 65.4221 226.17 65.6214C221.544 65.8221 216.91 65.5805 212.33 64.8999C209.15 64.3788 206.934 63.7181 203.355 63.2578C193.957 62.0494 175.569 62.4556 159.158 64.0044C142.747 65.5532 128.679 68.0914 120.746 70.6053C112.812 73.1192 110.62 75.5944 112.468 77.6933C113.648 79.0336 116.668 80.2869 123.993 80.8254C137.695 81.8328 162.089 80.0988 176.247 81.0154C184.138 81.5262 187.638 82.7926 194.562 83.4856C202 84.2301 212.888 84.2696 223.587 84.2519C245.861 84.2152 268.706 83.9863 292 83.5666C301.73 83.3913 311.925 83.1634 322.278 82.328C332.631 81.4925 343.191 79.8807 345.375 78.3696" fill="white"/>
</g>
<path d="M281.777 148.072C276.721 148.072 271.181 147.881 265.154 147.499C233.984 145.52 193.61 138.638 151.468 128.122C109.326 117.606 70.4517 104.712 42.0061 91.8153C28.1494 85.5327 17.5144 79.5858 10.397 74.1394C2.8615 68.3735 -0.434635 63.3477 0.599774 59.202C2.61527 51.1255 20.4617 49.3585 35.0781 49.2985L35.0831 50.473C15.0109 50.5554 3.16929 53.7565 1.73954 59.4865C-0.0817303 66.7843 14.7717 78.1776 42.4911 90.7455C70.8742 103.614 109.677 116.483 151.752 126.983C193.827 137.482 234.128 144.352 265.229 146.327C295.602 148.256 314.068 145.177 315.889 137.879C317.401 131.819 307.433 122.893 287.821 112.744L288.361 111.701C302.611 119.076 319.152 129.653 317.028 138.163C315.994 142.309 310.723 145.197 301.362 146.746C296.026 147.629 289.472 148.072 281.777 148.072Z" fill="#6366F1"/>
<path d="M88.8952 149.601C74.9576 149.602 62.0004 149.124 50.4006 148.159C35.2386 146.897 23.2238 144.869 14.6904 142.131C5.65553 139.231 0.862339 135.605 0.443869 131.353C-0.371656 123.069 15.8437 115.409 29.5903 110.441L29.9895 111.546C11.1119 118.368 1.03422 125.361 1.61268 131.238C2.34945 138.724 20.1674 144.464 50.4979 146.988C81.5549 149.572 122.426 148.656 165.583 144.408C208.739 140.16 249.005 133.091 278.962 124.501C308.218 116.112 324.575 107.008 323.838 99.5228C323.227 93.3079 310.839 88.2499 288.958 85.2799L289.116 84.1161C305.015 86.274 324.148 90.6785 325.007 99.4077C325.426 103.66 321.431 108.151 313.135 112.756C305.299 117.105 293.911 121.437 279.286 125.63C249.262 134.239 208.923 141.322 165.698 145.577C138.582 148.246 112.356 149.601 88.8952 149.601Z" fill="#6366F1"/>
<path d="M171.838 174.41C175.618 174.41 178.683 171.345 178.683 167.565C178.683 163.785 175.618 160.72 171.838 160.72C168.058 160.72 164.993 163.785 164.993 167.565C164.993 171.345 168.058 174.41 171.838 174.41Z" fill="#6366F1"/>
<path d="M37.0499 133.998C40.8303 133.998 43.8948 130.934 43.8948 127.153C43.8948 123.373 40.8303 120.308 37.0499 120.308C33.2696 120.308 30.2051 123.373 30.2051 127.153C30.2051 130.934 33.2696 133.998 37.0499 133.998Z" fill="#E6E6E6"/>
<path d="M162.726 29.0796C165.04 29.0796 166.916 27.2037 166.916 24.8895C166.916 22.5754 165.04 20.6994 162.726 20.6994C160.412 20.6994 158.536 22.5754 158.536 24.8895C158.536 27.2037 160.412 29.0796 162.726 29.0796Z" fill="#FF6584"/>
<path d="M137.374 60.7102C141.154 60.7102 144.219 57.6457 144.219 53.8654C144.219 50.0851 141.154 47.0205 137.374 47.0205C133.593 47.0205 130.529 50.0851 130.529 53.8654C130.529 57.6457 133.593 60.7102 137.374 60.7102Z" fill="#E6E6E6"/>
</g>
<defs>
<clipPath id="clip0_7_312">
<rect width="345.171" height="230.079" fill="white" transform="translate(0.414307)"/>
</clipPath>
</defs>
</svg>
