<svg width="1304" height="319" viewBox="0 0 1304 319" fill="none" xmlns="http://www.w3.org/2000/svg">
<path d="M21.6905 253V70.0679H64.0262V218.504H155.754V253H21.6905ZM407.657 255.091C395.287 255.091 384.66 252.477 375.774 247.251C366.889 242.024 360.094 234.097 355.391 223.47C350.687 212.668 348.335 199.079 348.335 182.702C348.335 166.151 350.774 152.562 355.652 141.934C360.704 131.307 367.673 123.38 376.558 118.153C385.444 112.926 395.81 110.313 407.657 110.313C420.898 110.313 432.745 113.275 443.198 119.198C453.825 125.122 462.188 133.484 468.286 144.286C474.558 155.088 477.694 167.893 477.694 182.702C477.694 197.336 474.558 210.055 468.286 220.856C462.188 231.658 453.825 240.108 443.198 246.205C432.745 252.129 420.898 255.091 407.657 255.091ZM324.553 253V59.092H365.321V140.889L362.708 182.44L363.492 224.254V253H324.553ZM400.601 221.64C407.396 221.64 413.406 220.072 418.633 216.936C424.034 213.8 428.302 209.358 431.438 203.608C434.748 197.685 436.403 190.716 436.403 182.702C436.403 174.513 434.748 167.545 431.438 161.795C428.302 156.046 424.034 151.603 418.633 148.467C413.406 145.331 407.396 143.763 400.601 143.763C393.806 143.763 387.709 145.331 382.308 148.467C376.907 151.603 372.638 156.046 369.502 161.795C366.366 167.545 364.798 174.513 364.798 182.702C364.798 190.716 366.366 197.685 369.502 203.608C372.638 209.358 376.907 213.8 382.308 216.936C387.709 220.072 393.806 221.64 400.601 221.64ZM596.451 256.136C582.164 256.136 568.836 253.784 556.467 249.08C544.271 244.376 533.644 237.756 524.584 229.219C515.699 220.682 508.73 210.664 503.678 199.166C498.8 187.667 496.361 175.123 496.361 161.534C496.361 147.945 498.8 135.401 503.678 123.902C508.73 112.404 515.786 102.386 524.846 93.8491C533.905 85.3122 544.533 78.6918 556.728 73.9879C568.924 69.2839 582.164 66.9319 596.451 66.9319C610.911 66.9319 624.152 69.2839 636.173 73.9879C648.368 78.6918 658.909 85.3122 667.794 93.8491C676.854 102.212 683.909 112.142 688.962 123.641C694.014 135.139 696.541 147.77 696.541 161.534C696.541 175.123 694.014 187.754 688.962 199.427C683.909 210.926 676.854 220.943 667.794 229.48C658.909 237.843 648.368 244.376 636.173 249.08C624.152 253.784 610.911 256.136 596.451 256.136ZM656.295 295.074C649.152 295.074 642.358 294.29 635.912 292.722C629.64 291.154 623.368 288.628 617.096 285.144C610.998 281.659 604.552 276.955 597.757 271.032C591.137 265.108 583.907 257.791 576.067 249.08L620.493 237.843C625.197 244.289 629.553 249.428 633.56 253.261C637.567 257.094 641.4 259.795 645.058 261.363C648.891 262.931 652.898 263.715 657.079 263.715C668.23 263.715 678.16 259.185 686.871 250.125L705.687 272.6C693.317 287.583 676.854 295.074 656.295 295.074ZM596.451 220.072C604.639 220.072 612.13 218.678 618.925 215.891C625.894 213.103 631.992 209.096 637.218 203.87C642.445 198.643 646.452 192.458 649.239 185.315C652.201 177.998 653.682 170.071 653.682 161.534C653.682 152.823 652.201 144.896 649.239 137.753C646.452 130.61 642.445 124.425 637.218 119.198C631.992 113.972 625.894 109.965 618.925 107.177C612.13 104.389 604.639 102.996 596.451 102.996C588.262 102.996 580.684 104.389 573.715 107.177C566.746 109.965 560.648 113.972 555.421 119.198C550.369 124.425 546.362 130.61 543.4 137.753C540.613 144.896 539.219 152.823 539.219 161.534C539.219 170.071 540.613 177.998 543.4 185.315C546.362 192.458 550.369 198.643 555.421 203.87C560.648 209.096 566.746 213.103 573.715 215.891C580.684 218.678 588.262 220.072 596.451 220.072ZM784.805 255.091C773.132 255.091 762.679 252.826 753.445 248.296C744.386 243.766 737.33 236.885 732.278 227.651C727.225 218.243 724.699 206.309 724.699 191.848V112.404H765.467V185.838C765.467 197.511 767.906 206.135 772.784 211.71C777.836 217.11 784.892 219.811 793.952 219.811C800.224 219.811 805.799 218.504 810.677 215.891C815.555 213.103 819.388 208.922 822.176 203.347C824.963 197.598 826.357 190.455 826.357 181.918V112.404H867.125V253H828.448V214.323L835.504 225.56C830.8 235.317 823.831 242.721 814.597 247.773C805.538 252.652 795.607 255.091 784.805 255.091ZM974.669 255.091C958.64 255.091 944.529 251.955 932.333 245.683C920.312 239.411 910.991 230.874 904.371 220.072C897.75 209.096 894.44 196.639 894.44 182.702C894.44 168.59 897.663 156.133 904.109 145.331C910.73 134.355 919.702 125.819 931.026 119.721C942.351 113.449 955.156 110.313 969.442 110.313C983.206 110.313 995.575 113.275 1006.55 119.198C1017.7 124.948 1026.5 133.31 1032.95 144.286C1039.39 155.088 1042.62 168.067 1042.62 183.224C1042.62 184.792 1042.53 186.622 1042.35 188.712C1042.18 190.629 1042.01 192.458 1041.83 194.2H927.629V170.419H1020.4L1004.72 177.475C1004.72 170.158 1003.24 163.799 1000.28 158.398C997.318 152.997 993.223 148.816 987.997 145.854C982.77 142.718 976.672 141.15 969.704 141.15C962.735 141.15 956.55 142.718 951.149 145.854C945.922 148.816 941.828 153.084 938.866 158.659C935.905 164.06 934.424 170.506 934.424 177.998V184.27C934.424 191.936 936.079 198.73 939.389 204.654C942.873 210.403 947.665 214.846 953.762 217.982C960.034 220.943 967.352 222.424 975.714 222.424C983.206 222.424 989.739 221.292 995.314 219.027C1001.06 216.762 1006.29 213.365 1010.99 208.835L1032.68 232.355C1026.24 239.672 1018.14 245.334 1008.38 249.341C998.624 253.174 987.387 255.091 974.669 255.091ZM1117.06 255.091C1105.04 255.091 1093.45 253.697 1082.3 250.909C1071.32 247.948 1062.61 244.289 1056.17 239.933L1069.76 210.664C1076.2 214.671 1083.78 217.982 1092.49 220.595C1101.38 223.034 1110.09 224.254 1118.63 224.254C1128.03 224.254 1134.65 223.121 1138.49 220.856C1142.49 218.591 1144.5 215.455 1144.5 211.448C1144.5 208.138 1142.93 205.699 1139.79 204.131C1136.83 202.389 1132.82 201.082 1127.77 200.211C1122.72 199.34 1117.14 198.469 1111.05 197.598C1105.12 196.727 1099.11 195.594 1093.02 194.2C1086.92 192.632 1081.34 190.368 1076.29 187.406C1071.24 184.444 1067.14 180.437 1064.01 175.385C1061.05 170.332 1059.56 163.799 1059.56 155.785C1059.56 146.899 1062.09 139.059 1067.14 132.265C1072.37 125.47 1079.86 120.156 1089.62 116.324C1099.37 112.317 1111.05 110.313 1124.64 110.313C1134.22 110.313 1143.97 111.358 1153.91 113.449C1163.84 115.54 1172.11 118.588 1178.73 122.596L1165.14 151.603C1158.35 147.596 1151.47 144.896 1144.5 143.502C1137.7 141.934 1131.08 141.15 1124.64 141.15C1115.58 141.15 1108.96 142.37 1104.78 144.809C1100.59 147.248 1098.5 150.384 1098.5 154.217C1098.5 157.701 1099.98 160.314 1102.95 162.057C1106.08 163.799 1110.18 165.193 1115.23 166.238C1120.28 167.283 1125.77 168.241 1131.69 169.113C1137.79 169.809 1143.89 170.942 1149.99 172.51C1156.08 174.078 1161.57 176.343 1166.45 179.304C1171.5 182.092 1175.6 186.012 1178.73 191.064C1181.87 195.943 1183.44 202.389 1183.44 210.403C1183.44 219.114 1180.82 226.867 1175.6 233.661C1170.37 240.282 1162.79 245.508 1152.86 249.341C1143.1 253.174 1131.17 255.091 1117.06 255.091ZM1266.08 255.091C1249.53 255.091 1236.64 250.909 1227.4 242.547C1218.17 234.01 1213.55 221.379 1213.55 204.654V81.3052H1254.32V204.131C1254.32 210.055 1255.89 214.671 1259.03 217.982C1262.16 221.118 1266.43 222.686 1271.83 222.686C1278.28 222.686 1283.77 220.943 1288.3 217.459L1299.27 246.205C1295.09 249.167 1290.04 251.432 1284.11 253C1278.36 254.394 1272.35 255.091 1266.08 255.091ZM1191.86 146.899V115.54H1289.34V146.899H1191.86Z" fill="#0F172A"/>
<path d="M223.013 87.9308V147.765C223.015 150.237 222.441 152.676 221.336 154.888L181.041 235.39C180.428 236.606 180.138 237.959 180.198 239.32C180.259 240.68 180.668 242.002 181.386 243.159C182.104 244.316 183.107 245.27 184.3 245.927C185.492 246.585 186.833 246.926 188.195 246.916H289.628C290.99 246.926 292.331 246.585 293.524 245.927C294.716 245.27 295.719 244.316 296.437 243.159C297.156 242.002 297.565 240.68 297.625 239.32C297.685 237.959 297.395 236.606 296.782 235.39L256.487 154.888C255.382 152.676 254.808 150.237 254.81 147.765V87.9308" stroke="#4F46E5" stroke-width="20.5806" stroke-linecap="round" stroke-linejoin="round"/>
<path d="M211.09 87.9308H266.735" stroke="#4F46E5" stroke-width="20.5806" stroke-linecap="round" stroke-linejoin="round"/>
<path d="M199.166 199.221H278.658" stroke="#4F46E5" stroke-width="20.5806" stroke-linecap="round" stroke-linejoin="round"/>
</svg>
